<svg xmlns="http://www.w3.org/2000/svg" width="98" height="62" fill="none" viewBox="0 0 104 66"><rect width="104" height="66" fill="currentColor" fill-opacity=".02" rx="4"/><rect width="24.098" height="57.589" x="5.202" y="4.121" fill="currentColor" fill-opacity=".08" rx="2"/><rect width="13.854" height="2.092" x="10.323" y="16.87" fill="currentColor" fill-opacity=".3" rx="1.046"/><rect width="9.879" height="2.092" x="10.323" y="25.562" fill="currentColor" fill-opacity=".3" rx="1.046"/><rect width="12.383" height="2.092" x="10.323" y="34.254" fill="currentColor" fill-opacity=".3" rx="1.046"/><rect width="6.088" height="2.092" x="10.323" y="42.946" fill="currentColor" fill-opacity=".3" rx="1.046"/><rect width="8.091" height="2.092" x="10.323" y="51.638" fill="currentColor" fill-opacity=".3" rx="1.046"/><rect width="62.389" height="57.589" x="35.514" y="4.121" fill="currentColor" fill-opacity=".08" rx="2"/><rect width="13.854" height="2.092" x="43.758" y="14.183" fill="currentColor" fill-opacity=".3" rx="1.046"/><rect width="32.801" height="2.092" x="43.758" y="22.875" fill="currentColor" fill-opacity=".3" rx="1.046"/><rect width="41.208" height="2.092" x="43.758" y="31.567" fill="currentColor" fill-opacity=".3" rx="1.046"/><rect width="32.801" height="2.092" x="43.758" y="40.259" fill="currentColor" fill-opacity=".3" rx="1.046"/><rect width="5.775" height="2.092" x="43.758" y="48.952" fill="currentColor" fill-opacity=".3" rx="1.046"/></svg>