<svg xmlns="http://www.w3.org/2000/svg" width="98" height="62" fill="none" viewBox="0 0 104 66"><rect width="104" height="66" fill="currentColor" fill-opacity=".02" rx="4"/><path fill="currentColor" fill-opacity=".04" d="M0 4C0 1.79086 1.79086 0 4 0H13.7359V66H4C1.79086 66 0 64.2091 0 62V4Z"/><rect width="7.849" height="2.789" x="2.943" y="23.884" fill="currentColor" fill-opacity=".3" rx="1.395"/><rect width="6.868" height="6.794" x="3.434" y="5.881" fill="currentColor" fill-opacity=".3" rx="2"/><rect width="7.849" height="2.789" x="2.943" y="34.438" fill="currentColor" fill-opacity=".3" rx="1.395"/><rect width="7.849" height="2.789" x="2.943" y="44.992" fill="currentColor" fill-opacity=".3" rx="1.395"/><rect width="7.849" height="2.789" x="2.943" y="55.546" fill="currentColor" fill-opacity=".3" rx="1.395"/><rect width="75.437" height="8.8" x="21.472" y="4.672" fill="currentColor" fill-opacity=".08" rx="2"/><rect width="3.925" height="4.4" x="25.617" y="6.872" fill="currentColor" fill-opacity=".3" rx="1"/><rect width="3.925" height="4.4" x="78.248" y="6.872" fill="currentColor" fill-opacity=".3" rx="1"/><rect width="3.925" height="4.4" x="84.135" y="6.872" fill="currentColor" fill-opacity=".3" rx="1"/><rect width="3.925" height="4.4" x="90.022" y="6.872" fill="currentColor" fill-opacity=".3" rx="1"/><rect width="46.821" height="17.6" x="50.491" y="19.613" fill="currentColor" fill-opacity=".08" rx="2"/><rect width="22.168" height="17.6" x="21.472" y="19.613" fill="currentColor" fill-opacity=".08" rx="2"/><rect width="75.841" height="17.6" x="21.472" y="42.455" fill="currentColor" fill-opacity=".08" rx="2"/></svg>