<svg xmlns="http://www.w3.org/2000/svg" width="98" height="62" fill="none" viewBox="0 0 104 66"><rect width="104" height="66" fill="currentColor" fill-opacity=".02" rx="4"/><rect width="17.66" height="2.789" x="4.906" y="23.884" fill="currentColor" fill-opacity=".3" rx="1.395"/><rect width="9.811" height="9.706" x="8.83" y="5.881" fill="currentColor" fill-opacity=".3" rx="2"/><rect width="17.66" height="2.789" x="4.906" y="34.438" fill="currentColor" fill-opacity=".3" rx="1.395"/><rect width="17.66" height="2.789" x="4.906" y="44.992" fill="currentColor" fill-opacity=".3" rx="1.395"/><rect width="17.66" height="2.789" x="4.906" y="55.546" fill="currentColor" fill-opacity=".3" rx="1.395"/><rect width="63.755" height="7.8" x="34.615" y="5.172" stroke="currentColor" stroke-opacity=".12" rx="1.5"/><rect width="3.925" height="4.4" x="37.039" y="6.872" fill="currentColor" fill-opacity=".3" rx="1"/><rect width="3.925" height="4.4" x="80.21" y="6.872" fill="currentColor" fill-opacity=".3" rx="1"/><rect width="3.925" height="4.4" x="86.096" y="6.872" fill="currentColor" fill-opacity=".3" rx="1"/><rect width="3.925" height="4.4" x="91.002" y="6.872" fill="currentColor" fill-opacity=".3" rx="1"/><rect width="39.226" height="16.6" x="58.984" y="20.113" stroke="currentColor" stroke-opacity=".12" rx="1.5"/><rect width="18.046" height="16.6" x="34.615" y="20.113" stroke="currentColor" stroke-opacity=".12" rx="1.5"/><rect width="63.755" height="16.6" x="34.615" y="42.955" stroke="currentColor" stroke-opacity=".12" rx="1.5"/></svg>